<?xml version="1.0" standalone="no"?>
<!DOCTYPE svg PUBLIC "-//W3C//DTD SVG 20010904//EN"
 "http://www.w3.org/TR/2001/REC-SVG-20010904/DTD/svg10.dtd">
<svg version="1.0" xmlns="http://www.w3.org/2000/svg"
 width="700.000000pt" height="700.000000pt" viewBox="0 0 700.000000 700.000000"
 preserveAspectRatio="xMidYMid meet">
<metadata>
Created by potrace 1.11, written by Peter Selinger 2001-2013
</metadata>
<g transform="translate(0.000000,700.000000) scale(0.100000,-0.100000)"
fill="#000000" stroke="none">
<path d="M3278 6995 c-1 -1 -41 -5 -88 -9 -87 -7 -105 -9 -225 -27 -116 -18
-123 -19 -192 -35 -184 -42 -248 -59 -369 -99 -264 -88 -538 -216 -759 -356
-696 -437 -1220 -1109 -1475 -1889 -28 -87 -75 -256 -85 -311 -3 -13 -11 -58
-20 -99 -29 -147 -36 -200 -52 -370 -15 -164 -8 -592 12 -711 2 -13 6 -46 9
-74 9 -78 23 -156 51 -285 70 -325 244 -759 410 -1023 30 -49 55 -90 55 -93 0
-3 4 -10 10 -17 5 -7 46 -64 91 -126 72 -103 179 -239 234 -297 243 -261 429
-421 682 -590 77 -52 145 -94 149 -94 4 0 15 -6 23 -14 29 -25 304 -161 431
-213 269 -110 577 -194 835 -228 22 -2 56 -7 75 -10 186 -26 698 -27 838 0 16
3 104 15 147 20 324 41 869 235 1167 415 37 22 70 40 73 40 3 0 11 5 18 10 7
6 62 43 122 83 253 168 492 376 678 592 33 39 63 72 67 75 4 3 44 55 90 115
154 203 281 412 393 649 26 54 47 100 47 103 0 2 8 23 19 46 53 118 147 417
177 562 17 81 54 301 59 350 4 33 9 71 11 85 9 47 11 525 3 605 -15 165 -21
220 -24 225 -2 3 -6 30 -10 60 -9 75 -69 337 -98 435 -189 621 -520 1148 -998
1590 -256 238 -640 488 -949 620 -36 15 -80 34 -98 42 -122 53 -422 144 -587
178 -44 9 -89 19 -100 21 -11 2 -38 6 -60 9 -22 3 -51 7 -65 10 -13 2 -52 7
-86 11 -33 3 -74 8 -90 10 -32 5 -540 14 -546 9z m1257 -2200 c335 -26 579
-195 665 -459 44 -137 49 -371 10 -506 -40 -140 -117 -250 -218 -314 l-43 -27
60 -40 c210 -140 302 -395 267 -738 -23 -229 -133 -422 -305 -534 -157 -103
-341 -147 -591 -142 -142 3 -165 5 -265 26 -227 49 -406 177 -499 359 -65 126
-90 245 -89 430 0 115 4 162 21 227 44 170 124 287 254 373 l57 37 -49 32
c-167 108 -248 311 -237 591 6 157 32 256 94 357 116 191 332 308 606 329 51
3 93 7 94 8 3 2 73 -1 168 -9z m-1409 -35 l81 0 0 -220 0 -220 -482 0 -481 0
1 -284 c0 -157 3 -287 6 -290 2 -3 86 -6 184 -7 385 -2 584 -68 753 -248 71
-77 143 -234 158 -350 3 -25 9 -66 13 -91 8 -53 7 -261 -3 -341 -37 -311 -205
-536 -466 -623 -127 -42 -219 -54 -379 -51 -189 3 -333 33 -443 92 -177 95
-291 267 -333 498 -8 46 -19 166 -19 205 l0 35 241 3 240 2 -1 -22 c-1 -22 5
-72 19 -147 19 -106 93 -196 182 -222 27 -8 91 -14 148 -14 88 1 107 4 160 28
70 33 110 72 141 142 28 61 36 111 39 239 4 210 -51 332 -180 398 -26 14 -67
27 -140 45 -11 3 -193 6 -405 7 l-385 3 -3 716 -2 716 157 3 c87 2 374 2 638
1 264 -1 516 -3 561 -3z"/>
<path d="M4247 4351 c-77 -25 -122 -57 -156 -111 -49 -76 -63 -158 -47 -283
25 -196 155 -286 392 -274 79 3 114 10 156 29 127 59 186 177 176 352 -10 149
-75 243 -197 284 -80 27 -244 29 -324 3z"/>
<path d="M4250 3231 c-79 -25 -112 -44 -152 -89 -57 -63 -80 -138 -84 -268 -7
-213 56 -323 217 -386 43 -16 77 -21 164 -21 127 -1 146 3 219 37 127 60 188
186 181 369 -5 116 -8 128 -45 204 -35 71 -84 115 -163 146 -73 28 -258 33
-337 8z"/>
</g>
</svg>
